<?xml version="1.0" encoding="us-ascii" standalone="no"?><svg xmlns="http://www.w3.org/2000/svg" xmlns:xlink="http://www.w3.org/1999/xlink" contentStyleType="text/css" height="443px" preserveAspectRatio="none" style="width:613px;height:443px;background:#FFFFFF;" version="1.1" viewBox="0 0 613 443" width="613px" zoomAndPan="magnify"><defs/><g><text fill="#000000" font-family="sans-serif" font-size="14" font-weight="bold" lengthAdjust="spacing" text-decoration="underline" textLength="164" x="223" y="32.9951">Calibration Protocol</text><rect fill="none" height="20.9531" style="stroke:none;stroke-width:1.0;" width="580" x="15" y="50.042"/><ellipse cx="155" cy="85.9951" fill="#222222" rx="10" ry="10" style="stroke:#222222;stroke-width:1.0;"/><rect fill="#F1F1F1" height="33.9688" rx="12.5" ry="12.5" style="stroke:#181818;stroke-width:0.5;" width="129" x="90.5" y="115.9951"/><text fill="#000000" font-family="sans-serif" font-size="12" lengthAdjust="spacing" textLength="109" x="100.5" y="137.1338">set_Motorspeed()</text><rect fill="#F1F1F1" height="33.9688" rx="12.5" ry="12.5" style="stroke:#181818;stroke-width:0.5;" width="218" x="46" y="225.6743"/><text fill="#000000" font-family="sans-serif" font-size="12" lengthAdjust="spacing" textLength="81" x="56" y="246.813">motor moves</text><text fill="#000000" font-family="sans-serif" font-size="12" font-weight="bold" lengthAdjust="spacing" textLength="9" x="141" y="246.813">X</text><text fill="#000000" font-family="sans-serif" font-size="12" lengthAdjust="spacing" textLength="100" x="154" y="246.813">number of steps</text><polygon fill="#F1F1F1" points="86.5,169.9639,223.5,169.9639,235.5,181.9639,223.5,193.9639,86.5,193.9639,74.5,181.9639,86.5,169.9639" style="stroke:#181818;stroke-width:0.5;"/><text fill="#000000" font-family="sans-serif" font-size="11" lengthAdjust="spacing" textLength="38" x="159" y="204.1743">if i &lt; n</text><text fill="#000000" font-family="sans-serif" font-size="11" lengthAdjust="spacing" textLength="129" x="86.5" y="185.772">number of iterations =</text><text fill="#000000" font-family="sans-serif" font-size="11" font-weight="bold" lengthAdjust="spacing" textLength="4" x="219.5" y="185.772">i</text><text fill="#000000" font-family="sans-serif" font-size="11" lengthAdjust="spacing" textLength="30" x="44.5" y="179.3696">if i=n</text><rect fill="#F1F1F1" height="33.9688" rx="12.5" ry="12.5" style="stroke:#181818;stroke-width:0.5;" width="125" x="92.5" y="357.6118"/><text fill="#000000" font-family="sans-serif" font-size="12" lengthAdjust="spacing" textLength="105" x="102.5" y="378.7505">End of Calibration</text><ellipse cx="155" cy="421.5806" fill="none" rx="10" ry="10" style="stroke:#222222;stroke-width:1.5;"/><line style="stroke:#222222;stroke-width:2.5;" x1="148.8128" x2="161.1872" y1="415.3934" y2="427.7678"/><line style="stroke:#222222;stroke-width:2.5;" x1="161.1872" x2="148.8128" y1="415.3934" y2="427.7678"/><line style="stroke:#000000;stroke-width:1.5;" x1="15" x2="15" y1="50.042" y2="431.5806"/><rect fill="#F1F1F1" height="33.9688" rx="12.5" ry="12.5" style="stroke:#181818;stroke-width:0.5;" width="288" x="301" y="303.6431"/><text fill="#000000" font-family="sans-serif" font-size="12" lengthAdjust="spacing" textLength="268" x="311" y="324.7817">Insert the weigh into the Calibration protocol</text><line style="stroke:#000000;stroke-width:1.5;" x1="295" x2="295" y1="50.042" y2="431.5806"/><line style="stroke:#000000;stroke-width:1.5;" x1="593" x2="593" y1="50.042" y2="431.5806"/><line style="stroke:#181818;stroke-width:1.0;" x1="155" x2="155" y1="95.9951" y2="115.9951"/><polygon fill="#181818" points="151,105.9951,155,115.9951,159,105.9951,155,109.9951" style="stroke:#181818;stroke-width:1.0;"/><line style="stroke:#181818;stroke-width:1.0;" x1="155" x2="155" y1="193.9639" y2="225.6743"/><polygon fill="#181818" points="151,215.6743,155,225.6743,159,215.6743,155,219.6743" style="stroke:#181818;stroke-width:1.0;"/><line style="stroke:#181818;stroke-width:1.0;" x1="155" x2="155" y1="259.6431" y2="271.6431"/><line style="stroke:#181818;stroke-width:1.0;" x1="155" x2="276" y1="271.6431" y2="271.6431"/><polygon fill="#181818" points="272,234.2563,276,224.2563,280,234.2563,276,230.2563" style="stroke:#181818;stroke-width:1.0;"/><line style="stroke:#181818;stroke-width:1.0;" x1="276" x2="276" y1="181.9639" y2="271.6431"/><line style="stroke:#181818;stroke-width:1.0;" x1="276" x2="235.5" y1="181.9639" y2="181.9639"/><polygon fill="#181818" points="245.5,177.9639,235.5,181.9639,245.5,185.9639,241.5,181.9639" style="stroke:#181818;stroke-width:1.0;"/><text fill="#000000" font-family="sans-serif" font-size="11" lengthAdjust="spacing" textLength="27" x="159" y="269.4512">i + 1</text><line style="stroke:#181818;stroke-width:1.0;" x1="74.5" x2="34" y1="181.9639" y2="181.9639"/><polygon fill="#181818" points="30,229.0063,34,239.0063,38,229.0063,34,233.0063" style="stroke:#181818;stroke-width:1.0;"/><line style="stroke:#181818;stroke-width:1.0;" x1="34" x2="34" y1="181.9639" y2="288.6431"/><line style="stroke:#181818;stroke-width:1.0;" x1="34" x2="445" y1="288.6431" y2="288.6431"/><line style="stroke:#181818;stroke-width:1.0;" x1="445" x2="445" y1="288.6431" y2="303.6431"/><polygon fill="#181818" points="441,293.6431,445,303.6431,449,293.6431,445,297.6431" style="stroke:#181818;stroke-width:1.0;"/><line style="stroke:#181818;stroke-width:1.0;" x1="155" x2="155" y1="149.9639" y2="169.9639"/><polygon fill="#181818" points="151,159.9639,155,169.9639,159,159.9639,155,163.9639" style="stroke:#181818;stroke-width:1.0;"/><line style="stroke:#181818;stroke-width:1.0;" x1="155" x2="155" y1="391.5806" y2="411.5806"/><polygon fill="#181818" points="151,401.5806,155,411.5806,159,401.5806,155,405.5806" style="stroke:#181818;stroke-width:1.0;"/><line style="stroke:#181818;stroke-width:1.0;" x1="445" x2="445" y1="337.6118" y2="342.6118"/><line style="stroke:#181818;stroke-width:1.0;" x1="445" x2="155" y1="342.6118" y2="342.6118"/><line style="stroke:#181818;stroke-width:1.0;" x1="155" x2="155" y1="342.6118" y2="357.6118"/><polygon fill="#181818" points="151,347.6118,155,357.6118,159,347.6118,155,351.6118" style="stroke:#181818;stroke-width:1.0;"/><text fill="#000000" font-family="sans-serif" font-size="18" lengthAdjust="spacing" textLength="102" x="104" y="66.75">Automated</text><text fill="#000000" font-family="sans-serif" font-size="18" lengthAdjust="spacing" textLength="83" x="402.5" y="66.75">Manually</text><!--SRC=[NOz1Yy9038Nl-HKvjYmYUsrhGSJ37WIFteQfZJOmpPIPL17yyJkZWk8j8I_VUqzP7Q4n6-ku2rRP2-w3Lt_qpXY0-tfMFrgb_WuGrGO5g2AfsILDY1DHNvGrm7NWn2ba7ZiAw4_8IazSn1KsNSlDicjB15YqoEcC3KhwgyRCmT5VA6RP8SlmZObAKwpp5-CF_gQ9f7-O5PcoaZ9bt5cPhNEt5B7waqX1KGV2A_5vG1RrZ_MpulIgM7yrhBRIPziFxTFo7m00]--></g></svg>