<?xml version="1.0" encoding="UTF-8" standalone="no"?><svg xmlns="http://www.w3.org/2000/svg" xmlns:xlink="http://www.w3.org/1999/xlink" contentStyleType="text/css" height="224px" preserveAspectRatio="none" style="width:371px;height:224px;background:#FFFFFF;" version="1.1" viewBox="0 0 371 224" width="371px" zoomAndPan="magnify"><defs/><g><text fill="#000000" font-family="sans-serif" font-size="14" font-weight="bold" lengthAdjust="spacing" textLength="328" x="20" y="32.9951">activity diagram of automated titration</text><ellipse cx="186" cy="57.2969" fill="#222222" rx="10" ry="10" style="stroke:#222222;stroke-width:1.0;"/><rect fill="#555555" height="6" rx="2.5" ry="2.5" style="stroke:#555555;stroke-width:1.0;" width="349" x="11" y="87.2969"/><rect fill="#F1F1F1" height="33.9688" rx="12.5" ry="12.5" style="stroke:#181818;stroke-width:0.5;" width="156" x="23" y="113.2969"/><text fill="#000000" font-family="sans-serif" font-size="12" lengthAdjust="spacing" textLength="136" x="33" y="134.4355">initialise StepperMotor</text><rect fill="#F1F1F1" height="33.9688" rx="12.5" ry="12.5" style="stroke:#181818;stroke-width:0.5;" width="142" x="206" y="113.2969"/><text fill="#000000" font-family="sans-serif" font-size="12" lengthAdjust="spacing" textLength="122" x="216" y="134.4355">initialise Lightsensor</text><rect fill="#555555" height="6" rx="2.5" ry="2.5" style="stroke:#555555;stroke-width:1.0;" width="349" x="11" y="167.2656"/><ellipse cx="186" cy="203.2656" fill="none" rx="10" ry="10" style="stroke:#222222;stroke-width:1.5;"/><line style="stroke:#222222;stroke-width:2.5;" x1="179.8128" x2="192.1872" y1="197.0784" y2="209.4528"/><line style="stroke:#222222;stroke-width:2.5;" x1="192.1872" x2="179.8128" y1="197.0784" y2="209.4528"/><line style="stroke:#181818;stroke-width:1.0;" x1="101" x2="101" y1="93.2969" y2="113.2969"/><polygon fill="#181818" points="97,103.2969,101,113.2969,105,103.2969,101,107.2969" style="stroke:#181818;stroke-width:1.0;"/><line style="stroke:#181818;stroke-width:1.0;" x1="277" x2="277" y1="93.2969" y2="113.2969"/><polygon fill="#181818" points="273,103.2969,277,113.2969,281,103.2969,277,107.2969" style="stroke:#181818;stroke-width:1.0;"/><line style="stroke:#181818;stroke-width:1.0;" x1="101" x2="101" y1="147.2656" y2="167.2656"/><polygon fill="#181818" points="97,157.2656,101,167.2656,105,157.2656,101,161.2656" style="stroke:#181818;stroke-width:1.0;"/><line style="stroke:#181818;stroke-width:1.0;" x1="277" x2="277" y1="147.2656" y2="167.2656"/><polygon fill="#181818" points="273,157.2656,277,167.2656,281,157.2656,277,161.2656" style="stroke:#181818;stroke-width:1.0;"/><line style="stroke:#181818;stroke-width:1.0;" x1="186" x2="186" y1="67.2969" y2="87.2969"/><polygon fill="#181818" points="182,77.2969,186,87.2969,190,77.2969,186,81.2969" style="stroke:#181818;stroke-width:1.0;"/><line style="stroke:#181818;stroke-width:1.0;" x1="186" x2="186" y1="173.2656" y2="193.2656"/><polygon fill="#181818" points="182,183.2656,186,193.2656,190,183.2656,186,187.2656" style="stroke:#181818;stroke-width:1.0;"/><!--SRC=[NSmn3i8m44JHtgUOSv0hX8eJhF36Z4YyqNf0ulP0odI_UFgYLeVTnJVrGQMrj0snm5wApUGLejB4w6N8KcM9V1RWmaxHLWx7JRxldjTGv7G0M3Fs4vlP7XhUnrzvhpXMl_W2]--></g></svg>