<?xml version="1.0" encoding="UTF-8" standalone="no"?><svg xmlns="http://www.w3.org/2000/svg" xmlns:xlink="http://www.w3.org/1999/xlink" contentStyleType="text/css" height="217px" preserveAspectRatio="none" style="width:100px;height:217px;background:#FFFFFF;" version="1.1" viewBox="0 0 100 217" width="100px" zoomAndPan="magnify"><defs/><g><rect fill="#F1F1F1" height="33.9688" rx="12.5" ry="12.5" style="stroke:#181818;stroke-width:0.5;" width="78" x="11" y="11"/><text fill="#000000" font-family="sans-serif" font-size="12" lengthAdjust="spacing" textLength="58" x="21" y="32.1387">Initializing</text><rect fill="#F1F1F1" height="33.9688" rx="12.5" ry="12.5" style="stroke:#181818;stroke-width:0.5;" width="56" x="22" y="64.9688"/><text fill="#000000" font-family="sans-serif" font-size="12" lengthAdjust="spacing" textLength="36" x="32" y="86.1074">motor</text><rect fill="#F1F1F1" height="33.9688" rx="12.5" ry="12.5" style="stroke:#181818;stroke-width:0.5;" width="54" x="23" y="118.9375"/><text fill="#000000" font-family="sans-serif" font-size="12" lengthAdjust="spacing" textLength="34" x="33" y="140.0762">pump</text><rect fill="#F1F1F1" height="33.9688" rx="12.5" ry="12.5" style="stroke:#181818;stroke-width:0.5;" width="49" x="25.5" y="172.9063"/><text fill="#000000" font-family="sans-serif" font-size="12" lengthAdjust="spacing" textLength="29" x="35.5" y="194.0449">input</text><line style="stroke:#181818;stroke-width:1.0;" x1="50" x2="50" y1="44.9688" y2="64.9688"/><polygon fill="#181818" points="46,54.9688,50,64.9688,54,54.9688,50,58.9688" style="stroke:#181818;stroke-width:1.0;"/><line style="stroke:#181818;stroke-width:1.0;" x1="50" x2="50" y1="98.9375" y2="118.9375"/><polygon fill="#181818" points="46,108.9375,50,118.9375,54,108.9375,50,112.9375" style="stroke:#181818;stroke-width:1.0;"/><line style="stroke:#181818;stroke-width:1.0;" x1="50" x2="50" y1="152.9063" y2="172.9063"/><polygon fill="#181818" points="46,162.9063,50,172.9063,54,162.9063,50,166.9063" style="stroke:#181818;stroke-width:1.0;"/><!--SRC=[i_BCoop9JCp9hChCIxVciihDByal0j85fRa5G2ephw2qn1e0]--></g></svg>