<?xml version="1.0" encoding="UTF-8" standalone="no"?><svg xmlns="http://www.w3.org/2000/svg" xmlns:xlink="http://www.w3.org/1999/xlink" contentStyleType="text/css" height="217px" preserveAspectRatio="none" style="width:134px;height:217px;background:#FFFFFF;" version="1.1" viewBox="0 0 134 217" width="134px" zoomAndPan="magnify"><defs/><g><rect fill="#F1F1F1" height="33.9688" rx="12.5" ry="12.5" style="stroke:#181818;stroke-width:0.5;" width="78" x="28" y="11"/><text fill="#000000" font-family="sans-serif" font-size="12" lengthAdjust="spacing" textLength="58" x="38" y="32.1387">Initializing</text><rect fill="#F1F1F1" height="33.9688" rx="12.5" ry="12.5" style="stroke:#181818;stroke-width:0.5;" width="54" x="40" y="64.9688"/><text fill="#000000" font-family="sans-serif" font-size="12" lengthAdjust="spacing" textLength="34" x="50" y="86.1074">pump</text><rect fill="#008000" height="33.9688" rx="12.5" ry="12.5" style="stroke:#181818;stroke-width:0.5;" width="56" x="39" y="118.9375"/><text fill="#000000" font-family="sans-serif" font-size="12" lengthAdjust="spacing" textLength="36" x="49" y="140.0762">motor</text><rect fill="#008000" height="33.9688" rx="12.5" ry="12.5" style="stroke:#181818;stroke-width:0.5;" width="112" x="11" y="172.9063"/><text fill="#000000" font-family="sans-serif" font-size="12" lengthAdjust="spacing" textLength="92" x="21" y="194.0449">input the weigh</text><line style="stroke:#181818;stroke-width:1.0;" x1="67" x2="67" y1="44.9688" y2="64.9688"/><polygon fill="#181818" points="63,54.9688,67,64.9688,71,54.9688,67,58.9688" style="stroke:#181818;stroke-width:1.0;"/><line style="stroke:#181818;stroke-width:1.0;" x1="67" x2="67" y1="98.9375" y2="118.9375"/><polygon fill="#181818" points="63,108.9375,67,118.9375,71,108.9375,67,112.9375" style="stroke:#181818;stroke-width:1.0;"/><line style="stroke:#181818;stroke-width:1.0;" x1="67" x2="67" y1="152.9063" y2="172.9063"/><polygon fill="#181818" points="63,162.9063,67,172.9063,71,162.9063,67,166.9063" style="stroke:#181818;stroke-width:1.0;"/><!--SRC=[i_BCoop9JCp9hChCIxVcuh8gACqj0DBAwKMfgNbMkVab-KK8RcPUGMc9Gab6ga9vQcPwXZK0]--></g></svg>