<?xml version="1.0" encoding="us-ascii" standalone="no"?><svg xmlns="http://www.w3.org/2000/svg" xmlns:xlink="http://www.w3.org/1999/xlink" contentStyleType="text/css" height="508px" preserveAspectRatio="none" style="width:616px;height:508px;background:#FFFFFF;" version="1.1" viewBox="0 0 616 508" width="616px" zoomAndPan="magnify"><defs/><g><text fill="#000000" font-family="sans-serif" font-size="14" font-weight="bold" lengthAdjust="spacing" text-decoration="underline" textLength="164" x="224.5" y="32.9951">Calibration Protocol</text><rect fill="none" height="20.9531" style="stroke:none;stroke-width:1.0;" width="583" x="15" y="50.042"/><ellipse cx="157.5" cy="85.9951" fill="#222222" rx="10" ry="10" style="stroke:#222222;stroke-width:1.0;"/><rect fill="#555555" height="6" rx="2.5" ry="2.5" style="stroke:#555555;stroke-width:1.0;" width="273" x="21" y="115.9951"/><rect fill="#F1F1F1" height="33.9688" rx="12.5" ry="12.5" style="stroke:#181818;stroke-width:0.5;" width="70" x="33" y="141.9951"/><text fill="#000000" font-family="sans-serif" font-size="12" lengthAdjust="spacing" textLength="50" x="43" y="163.1338">Define n</text><rect fill="#F1F1F1" height="33.9688" rx="12.5" ry="12.5" style="stroke:#181818;stroke-width:0.5;" width="141" x="141" y="141.9951"/><text fill="#000000" font-family="sans-serif" font-size="12" lengthAdjust="spacing" textLength="121" x="151" y="163.1338">Initializing the motor</text><rect fill="#555555" height="6" rx="2.5" ry="2.5" style="stroke:#555555;stroke-width:1.0;" width="273" x="21" y="208.7686"/><rect fill="#F1F1F1" height="33.9688" rx="12.5" ry="12.5" style="stroke:#181818;stroke-width:0.5;" width="152" x="81.5" y="290.479"/><text fill="#000000" font-family="sans-serif" font-size="12" lengthAdjust="spacing" textLength="132" x="91.5" y="311.6177">Pump drives one step</text><polygon fill="#F1F1F1" points="105,234.7686,210,234.7686,222,246.7686,210,258.7686,105,258.7686,93,246.7686,105,234.7686" style="stroke:#181818;stroke-width:0.5;"/><text fill="#000000" font-family="sans-serif" font-size="11" lengthAdjust="spacing" textLength="27" x="161.5" y="268.979">i &lt; n</text><text fill="#000000" font-family="sans-serif" font-size="11" lengthAdjust="spacing" textLength="105" x="105" y="250.5767">number of steps(i)</text><text fill="#000000" font-family="sans-serif" font-size="11" lengthAdjust="spacing" textLength="19" x="74" y="244.1743">i=n</text><rect fill="#F1F1F1" height="33.9688" rx="12.5" ry="12.5" style="stroke:#181818;stroke-width:0.5;" width="125" x="95" y="422.4165"/><text fill="#000000" font-family="sans-serif" font-size="12" lengthAdjust="spacing" textLength="105" x="105" y="443.5552">End of Calibration</text><ellipse cx="157.5" cy="486.3853" fill="none" rx="10" ry="10" style="stroke:#222222;stroke-width:1.5;"/><line style="stroke:#222222;stroke-width:2.5;" x1="151.3128" x2="163.6872" y1="480.1981" y2="492.5724"/><line style="stroke:#222222;stroke-width:2.5;" x1="163.6872" x2="151.3128" y1="480.1981" y2="492.5724"/><line style="stroke:#000000;stroke-width:1.5;" x1="15" x2="15" y1="50.042" y2="496.3853"/><rect fill="#F1F1F1" height="33.9688" rx="12.5" ry="12.5" style="stroke:#181818;stroke-width:0.5;" width="288" x="304" y="368.4478"/><text fill="#000000" font-family="sans-serif" font-size="12" lengthAdjust="spacing" textLength="268" x="314" y="389.5864">Insert the weigh into the Calibration protocol</text><line style="stroke:#000000;stroke-width:1.5;" x1="298" x2="298" y1="50.042" y2="496.3853"/><line style="stroke:#000000;stroke-width:1.5;" x1="596" x2="596" y1="50.042" y2="496.3853"/><line style="stroke:#181818;stroke-width:1.0;" x1="68" x2="68" y1="121.9951" y2="141.9951"/><polygon fill="#181818" points="64,131.9951,68,141.9951,72,131.9951,68,135.9951" style="stroke:#181818;stroke-width:1.0;"/><line style="stroke:#181818;stroke-width:1.0;" x1="211.5" x2="211.5" y1="121.9951" y2="141.9951"/><polygon fill="#181818" points="207.5,131.9951,211.5,141.9951,215.5,131.9951,211.5,135.9951" style="stroke:#181818;stroke-width:1.0;"/><line style="stroke:#181818;stroke-width:1.0;" x1="68" x2="68" y1="175.9639" y2="208.7686"/><polygon fill="#181818" points="64,198.7686,68,208.7686,72,198.7686,68,202.7686" style="stroke:#181818;stroke-width:1.0;"/><text fill="#000000" font-family="sans-serif" font-size="11" lengthAdjust="spacing" textLength="45" x="72" y="196.1743">n = 150</text><line style="stroke:#181818;stroke-width:1.0;" x1="211.5" x2="211.5" y1="175.9639" y2="208.7686"/><polygon fill="#181818" points="207.5,198.7686,211.5,208.7686,215.5,198.7686,211.5,202.7686" style="stroke:#181818;stroke-width:1.0;"/><text fill="#000000" font-family="sans-serif" font-size="11" lengthAdjust="spacing" textLength="27" x="215.5" y="196.1743">i = 0</text><line style="stroke:#181818;stroke-width:1.0;" x1="157.5" x2="157.5" y1="95.9951" y2="115.9951"/><polygon fill="#181818" points="153.5,105.9951,157.5,115.9951,161.5,105.9951,157.5,109.9951" style="stroke:#181818;stroke-width:1.0;"/><line style="stroke:#181818;stroke-width:1.0;" x1="157.5" x2="157.5" y1="258.7686" y2="290.479"/><polygon fill="#181818" points="153.5,280.479,157.5,290.479,161.5,280.479,157.5,284.479" style="stroke:#181818;stroke-width:1.0;"/><line style="stroke:#181818;stroke-width:1.0;" x1="157.5" x2="157.5" y1="324.4478" y2="336.4478"/><line style="stroke:#181818;stroke-width:1.0;" x1="157.5" x2="245.5" y1="336.4478" y2="336.4478"/><polygon fill="#181818" points="241.5,299.061,245.5,289.061,249.5,299.061,245.5,295.061" style="stroke:#181818;stroke-width:1.0;"/><line style="stroke:#181818;stroke-width:1.0;" x1="245.5" x2="245.5" y1="246.7686" y2="336.4478"/><line style="stroke:#181818;stroke-width:1.0;" x1="245.5" x2="222" y1="246.7686" y2="246.7686"/><polygon fill="#181818" points="232,242.7686,222,246.7686,232,250.7686,228,246.7686" style="stroke:#181818;stroke-width:1.0;"/><text fill="#000000" font-family="sans-serif" font-size="11" lengthAdjust="spacing" textLength="27" x="161.5" y="334.2559">i + 1</text><line style="stroke:#181818;stroke-width:1.0;" x1="93" x2="69.5" y1="246.7686" y2="246.7686"/><polygon fill="#181818" points="65.5,293.811,69.5,303.811,73.5,293.811,69.5,297.811" style="stroke:#181818;stroke-width:1.0;"/><line style="stroke:#181818;stroke-width:1.0;" x1="69.5" x2="69.5" y1="246.7686" y2="353.4478"/><line style="stroke:#181818;stroke-width:1.0;" x1="69.5" x2="448" y1="353.4478" y2="353.4478"/><line style="stroke:#181818;stroke-width:1.0;" x1="448" x2="448" y1="353.4478" y2="368.4478"/><polygon fill="#181818" points="444,358.4478,448,368.4478,452,358.4478,448,362.4478" style="stroke:#181818;stroke-width:1.0;"/><line style="stroke:#181818;stroke-width:1.0;" x1="157.5" x2="157.5" y1="214.7686" y2="234.7686"/><polygon fill="#181818" points="153.5,224.7686,157.5,234.7686,161.5,224.7686,157.5,228.7686" style="stroke:#181818;stroke-width:1.0;"/><line style="stroke:#181818;stroke-width:1.0;" x1="157.5" x2="157.5" y1="456.3853" y2="476.3853"/><polygon fill="#181818" points="153.5,466.3853,157.5,476.3853,161.5,466.3853,157.5,470.3853" style="stroke:#181818;stroke-width:1.0;"/><line style="stroke:#181818;stroke-width:1.0;" x1="448" x2="448" y1="402.4165" y2="407.4165"/><line style="stroke:#181818;stroke-width:1.0;" x1="448" x2="157.5" y1="407.4165" y2="407.4165"/><line style="stroke:#181818;stroke-width:1.0;" x1="157.5" x2="157.5" y1="407.4165" y2="422.4165"/><polygon fill="#181818" points="153.5,412.4165,157.5,422.4165,161.5,412.4165,157.5,416.4165" style="stroke:#181818;stroke-width:1.0;"/><text fill="#000000" font-family="sans-serif" font-size="18" lengthAdjust="spacing" textLength="102" x="105.5" y="66.75">Automated</text><text fill="#000000" font-family="sans-serif" font-size="18" lengthAdjust="spacing" textLength="83" x="405.5" y="66.75">Manually</text><!--SRC=[NP31QiD034Jl-WeTRKgXEVHY9uNIzj138NzWDh5iYwubioit9FZZkrc74dhJefcdsJ4sJzWqRyxp8JXZ5Tm7DJsgRng0vNKs7PrHkm14Sy40EWtV0DKxTIo4KWCylWZkSFFyLAzRTBrZIPfFOUE4lh3qQ0FXcD0XEpWv_lGaBS1fu9Iba7ayK43jC1fDiU2onDMmpSUg_JnEs0R-eOYQ4bnbD-G3RjAKQ9bLy4xAz8Sl9xFp_hpaH962vImdudv05jFylAzWkbLG_skW-f3scknEkzxx1G00]--></g></svg>