<?xml version="1.0" encoding="us-ascii" standalone="no"?><svg xmlns="http://www.w3.org/2000/svg" xmlns:xlink="http://www.w3.org/1999/xlink" contentStyleType="text/css" height="511px" preserveAspectRatio="none" style="width:630px;height:511px;background:#FFFFFF;" version="1.1" viewBox="0 0 630 511" width="630px" zoomAndPan="magnify"><defs/><g><text fill="#000000" font-family="sans-serif" font-size="14" font-weight="bold" lengthAdjust="spacing" text-decoration="underline" textLength="164" x="231.5" y="32.9951">Calibration Protocol</text><rect fill="none" height="20.9531" style="stroke:none;stroke-width:1.0;" width="597" x="15" y="50.042"/><ellipse cx="163.5" cy="85.9951" fill="#222222" rx="10" ry="10" style="stroke:#222222;stroke-width:1.0;"/><rect fill="#F1F1F1" height="33.9688" rx="12.5" ry="12.5" style="stroke:#181818;stroke-width:0.5;" width="129" x="99" y="115.9951"/><text fill="#000000" font-family="sans-serif" font-size="12" lengthAdjust="spacing" textLength="109" x="109" y="137.1338">set_Motorspeed()</text><rect fill="#F1F1F1" height="33.9688" rx="12.5" ry="12.5" style="stroke:#181818;stroke-width:0.5;" width="235" x="46" y="225.6743"/><text fill="#000000" font-family="sans-serif" font-size="12" lengthAdjust="spacing" textLength="81" x="56" y="246.813">motor moves</text><text fill="#000000" font-family="sans-serif" font-size="12" font-weight="bold" lengthAdjust="spacing" textLength="26" x="141" y="246.813">500</text><text fill="#000000" font-family="sans-serif" font-size="12" lengthAdjust="spacing" textLength="100" x="171" y="246.813">number of steps</text><rect fill="#F1F1F1" height="33.9688" rx="12.5" ry="12.5" style="stroke:#181818;stroke-width:0.5;" width="138" x="94.5" y="293.4907"/><text fill="#000000" font-family="sans-serif" font-size="12" lengthAdjust="spacing" textLength="55" x="104.5" y="314.6294">Delay for</text><text fill="#000000" font-family="sans-serif" font-size="12" font-weight="bold" lengthAdjust="spacing" textLength="59" x="163.5" y="314.6294">1000 ms</text><polygon fill="#F1F1F1" points="89,169.9639,238,169.9639,250,181.9639,238,193.9639,89,193.9639,77,181.9639,89,169.9639" style="stroke:#181818;stroke-width:0.5;"/><text fill="#000000" font-family="sans-serif" font-size="11" lengthAdjust="spacing" textLength="38" x="167.5" y="204.1743">if i &lt; n</text><text fill="#000000" font-family="sans-serif" font-size="11" lengthAdjust="spacing" textLength="129" x="89" y="185.772">number of iterations =</text><text fill="#000000" font-family="sans-serif" font-size="11" font-weight="bold" lengthAdjust="spacing" textLength="16" x="222" y="185.772">15</text><text fill="#000000" font-family="sans-serif" font-size="11" lengthAdjust="spacing" textLength="30" x="47" y="179.3696">if i=n</text><rect fill="#F1F1F1" height="33.9688" rx="12.5" ry="12.5" style="stroke:#181818;stroke-width:0.5;" width="125" x="101" y="425.4282"/><text fill="#000000" font-family="sans-serif" font-size="12" lengthAdjust="spacing" textLength="105" x="111" y="446.5669">End of Calibration</text><ellipse cx="163.5" cy="489.397" fill="none" rx="10" ry="10" style="stroke:#222222;stroke-width:1.5;"/><line style="stroke:#222222;stroke-width:2.5;" x1="157.3128" x2="169.6872" y1="483.2098" y2="495.5842"/><line style="stroke:#222222;stroke-width:2.5;" x1="169.6872" x2="157.3128" y1="483.2098" y2="495.5842"/><line style="stroke:#000000;stroke-width:1.5;" x1="15" x2="15" y1="50.042" y2="499.397"/><rect fill="#F1F1F1" height="33.9688" rx="12.5" ry="12.5" style="stroke:#181818;stroke-width:0.5;" width="288" x="318" y="371.4595"/><text fill="#000000" font-family="sans-serif" font-size="12" lengthAdjust="spacing" textLength="268" x="328" y="392.5981">Insert the weigh into the Calibration protocol</text><line style="stroke:#000000;stroke-width:1.5;" x1="312" x2="312" y1="50.042" y2="499.397"/><line style="stroke:#000000;stroke-width:1.5;" x1="610" x2="610" y1="50.042" y2="499.397"/><line style="stroke:#181818;stroke-width:1.0;" x1="163.5" x2="163.5" y1="95.9951" y2="115.9951"/><polygon fill="#181818" points="159.5,105.9951,163.5,115.9951,167.5,105.9951,163.5,109.9951" style="stroke:#181818;stroke-width:1.0;"/><line style="stroke:#181818;stroke-width:1.0;" x1="163.5" x2="163.5" y1="259.6431" y2="293.4907"/><polygon fill="#181818" points="159.5,283.4907,163.5,293.4907,167.5,283.4907,163.5,287.4907" style="stroke:#181818;stroke-width:1.0;"/><line style="stroke:#181818;stroke-width:1.0;" x1="163.5" x2="163.5" y1="193.9639" y2="225.6743"/><polygon fill="#181818" points="159.5,215.6743,163.5,225.6743,167.5,215.6743,163.5,219.6743" style="stroke:#181818;stroke-width:1.0;"/><line style="stroke:#181818;stroke-width:1.0;" x1="163.5" x2="163.5" y1="327.4595" y2="339.4595"/><line style="stroke:#181818;stroke-width:1.0;" x1="163.5" x2="293" y1="339.4595" y2="339.4595"/><polygon fill="#181818" points="289,268.7407,293,258.7407,297,268.7407,293,264.7407" style="stroke:#181818;stroke-width:1.0;"/><line style="stroke:#181818;stroke-width:1.0;" x1="293" x2="293" y1="181.9639" y2="339.4595"/><line style="stroke:#181818;stroke-width:1.0;" x1="293" x2="250" y1="181.9639" y2="181.9639"/><polygon fill="#181818" points="260,177.9639,250,181.9639,260,185.9639,256,181.9639" style="stroke:#181818;stroke-width:1.0;"/><text fill="#000000" font-family="sans-serif" font-size="11" lengthAdjust="spacing" textLength="27" x="167.5" y="337.2676">i + 1</text><line style="stroke:#181818;stroke-width:1.0;" x1="77" x2="34" y1="181.9639" y2="181.9639"/><polygon fill="#181818" points="30,263.4907,34,273.4907,38,263.4907,34,267.4907" style="stroke:#181818;stroke-width:1.0;"/><line style="stroke:#181818;stroke-width:1.0;" x1="34" x2="34" y1="181.9639" y2="356.4595"/><line style="stroke:#181818;stroke-width:1.0;" x1="34" x2="462" y1="356.4595" y2="356.4595"/><line style="stroke:#181818;stroke-width:1.0;" x1="462" x2="462" y1="356.4595" y2="371.4595"/><polygon fill="#181818" points="458,361.4595,462,371.4595,466,361.4595,462,365.4595" style="stroke:#181818;stroke-width:1.0;"/><line style="stroke:#181818;stroke-width:1.0;" x1="163.5" x2="163.5" y1="149.9639" y2="169.9639"/><polygon fill="#181818" points="159.5,159.9639,163.5,169.9639,167.5,159.9639,163.5,163.9639" style="stroke:#181818;stroke-width:1.0;"/><line style="stroke:#181818;stroke-width:1.0;" x1="163.5" x2="163.5" y1="459.397" y2="479.397"/><polygon fill="#181818" points="159.5,469.397,163.5,479.397,167.5,469.397,163.5,473.397" style="stroke:#181818;stroke-width:1.0;"/><line style="stroke:#181818;stroke-width:1.0;" x1="462" x2="462" y1="405.4282" y2="410.4282"/><line style="stroke:#181818;stroke-width:1.0;" x1="462" x2="163.5" y1="410.4282" y2="410.4282"/><line style="stroke:#181818;stroke-width:1.0;" x1="163.5" x2="163.5" y1="410.4282" y2="425.4282"/><polygon fill="#181818" points="159.5,415.4282,163.5,425.4282,167.5,415.4282,163.5,419.4282" style="stroke:#181818;stroke-width:1.0;"/><text fill="#000000" font-family="sans-serif" font-size="18" lengthAdjust="spacing" textLength="102" x="112.5" y="66.75">Automated</text><text fill="#000000" font-family="sans-serif" font-size="18" lengthAdjust="spacing" textLength="83" x="419.5" y="66.75">Manually</text><!--SRC=[NP3BQiCm44NtynLtQLDAbKKsjcCeRHTP1Fe7HgudjK0F8uqJ0lduIacXeRiHStHcveeHonY6DstD6BMOuF4PWuIlO8U1wFgwId1QUBeI9T5HY9h4CXmo4zF2F5LrItIUJVPKVdKZHuGZZF1Tbx13D_QRRVSozZM8ddkOt4S7dpysheZWmebJuRPA5H1_fYIyf4A-izKN73DTV4efk5JOjZWDdh395VlfjajLPknydKyuQBzgQo_vWcRl4qU1p8mpc-yPnakuFHyJM7uJQFy5q7pugQpqmDv7_W00]--></g></svg>