<svg width="2393" height="1387" xmlns="http://www.w3.org/2000/svg" xmlns:xlink="http://www.w3.org/1999/xlink" xml:space="preserve" overflow="hidden"><g transform="translate(-455 -300)"><rect x="459.5" y="304.5" width="2382" height="1378" stroke="#97BAFF" stroke-width="9.16667" stroke-linejoin="round" stroke-miterlimit="10" fill="#97BAFF"/><rect x="459.5" y="343.5" width="2382" height="182" stroke="#5F5F5F" stroke-width="9.16667" stroke-linejoin="round" stroke-miterlimit="10" fill="#D6E3FF"/><text font-family="Microsoft JhengHei,Microsoft JhengHei_MSFontService,sans-serif" font-weight="400" font-size="83" transform="matrix(1 0 0 1 996.302 465)">Calibration() | Calibration function</text><rect x="460.5" y="629.5" width="2383" height="182" stroke="#5F5F5F" stroke-width="9.16667" stroke-linejoin="round" stroke-miterlimit="10" fill="#D6E3FF"/><text font-family="Microsoft JhengHei,Microsoft JhengHei_MSFontService,sans-serif" font-weight="400" font-size="83" transform="matrix(1 0 0 1 838.941 751)">Measure_colo</text><text font-family="Microsoft JhengHei,Microsoft JhengHei_MSFontService,sans-serif" font-weight="400" font-size="83" transform="matrix(1 0 0 1 1378.61 751)">r</text><text font-family="Microsoft JhengHei,Microsoft JhengHei_MSFontService,sans-serif" font-weight="400" font-size="83" transform="matrix(1 0 0 1 1409.54 751)">() | Measures all light values </text><rect x="460.5" y="915.5" width="2383" height="182" stroke="#5F5F5F" stroke-width="9.16667" stroke-linejoin="round" stroke-miterlimit="10" fill="#D6E3FF"/><text font-family="Microsoft JhengHei,Microsoft JhengHei_MSFontService,sans-serif" font-weight="400" font-size="83" transform="matrix(1 0 0 1 892.348 1037)">Set_motorspeed</text><text font-family="Microsoft JhengHei,Microsoft JhengHei_MSFontService,sans-serif" font-weight="400" font-size="83" transform="matrix(1 0 0 1 1528.77 1037)">() | Set the </text><text font-family="Microsoft JhengHei,Microsoft JhengHei_MSFontService,sans-serif" font-weight="400" font-size="83" transform="matrix(1 0 0 1 1934.39 1037)">motorspeed</text><rect x="460.5" y="1195.5" width="2383" height="182" stroke="#5F5F5F" stroke-width="9.16667" stroke-linejoin="round" stroke-miterlimit="10" fill="#D6E3FF"/><text font-family="Microsoft JhengHei,Microsoft JhengHei_MSFontService,sans-serif" font-weight="400" font-size="83" transform="matrix(1 0 0 1 780.309 1316)">StartTitration</text><text font-family="Microsoft JhengHei,Microsoft JhengHei_MSFontService,sans-serif" font-weight="400" font-size="83" transform="matrix(1 0 0 1 1289.93 1316)">() | Start the automation Process</text><rect x="460.5" y="1475.5" width="2383" height="182" stroke="#5F5F5F" stroke-width="9.16667" stroke-linejoin="round" stroke-miterlimit="10" fill="#D6E3FF"/><text font-family="Microsoft JhengHei,Microsoft JhengHei_MSFontService,sans-serif" font-weight="400" font-size="83" transform="matrix(1 0 0 1 733.822 1596)">Step_count</text><text font-family="Microsoft JhengHei,Microsoft JhengHei_MSFontService,sans-serif" font-weight="400" font-size="83" transform="matrix(1 0 0 1 1166.83 1596)">() | Return the </text><text font-family="Microsoft JhengHei,Microsoft JhengHei_MSFontService,sans-serif" font-weight="400" font-size="83" transform="matrix(1 0 0 1 1707.3 1596)">amount</text><text font-family="Microsoft JhengHei,Microsoft JhengHei_MSFontService,sans-serif" font-weight="400" font-size="83" transform="matrix(1 0 0 1 2032.14 1596)">of steps taken</text></g></svg>