<?xml version="1.0" encoding="UTF-8" standalone="no"?>
<!-- Created with Inkscape (http://www.inkscape.org/) -->
<svg
   xmlns:svg="http://www.w3.org/2000/svg"
   xmlns="http://www.w3.org/2000/svg"
   xmlns:inkscape="http://www.inkscape.org/namespaces/inkscape"
   version="1.0"
   width="442.04999"
   height="87.989998"
   id="svg2">
  <defs
     id="defs4">
    <inkscape:perspective
       id="perspective10" />
    <clipPath
       id="clipPath2403">
      <path
         d="M 0,841.89 L 1190.551,841.89 L 1190.551,0 L 0,0 L 0,841.89 z"
         id="path2405" />
    </clipPath>
    <inkscape:perspective
       id="perspective2395" />
  </defs>
  <g
     transform="translate(-83.26196,-844.08145)"
     id="layer1">
    <g
       transform="matrix(1.25,0,0,-1.25,-176.96804,1762.9502)"
       id="g2397">
      <g
         id="g2399">
        <g
           clip-path="url(#clipPath2403)"
           id="g2401">
          <path
             d="M 279.909,712.102 L 279.909,685.862 C 279.909,682.113 277.96,680.391 274.433,680.391 L 264.841,680.391 C 261.315,680.391 259.367,682.113 259.367,685.862 L 259.367,712.102 L 231.255,712.102 L 231.255,727.095 L 223.906,727.095 L 223.906,712.102 L 216.184,712.102 L 216.184,704.679 L 223.906,704.679 L 223.906,686.013 C 223.906,677.987 229.302,673.043 236.728,673.043 L 240.551,673.043 L 240.701,680.463 L 236.728,680.463 C 233.206,680.463 231.255,682.338 231.255,686.013 L 231.255,704.679 L 252.018,704.679 L 252.018,685.862 C 252.018,677.915 257.568,673.043 264.841,673.043 L 274.433,673.043 C 281.708,673.043 287.255,677.915 287.255,685.862 L 287.255,712.102 L 279.909,712.102 z"
             id="path2407"
             style="fill:#6ec72d;fill-opacity:1;fill-rule:nonzero;stroke:none" />
          <path
             d="M 308.03,699.103 C 305.689,699.103 304.783,700.59 304.783,702.78 L 304.783,710.71 L 302.266,710.71 L 302.266,711.868 L 304.783,711.868 L 304.783,715.344 L 306.04,715.645 L 306.04,711.868 L 309.945,711.868 L 309.945,710.71 L 306.04,710.71 L 306.04,702.829 C 306.04,701.344 306.442,700.284 308.132,700.284 C 308.812,700.284 309.44,700.389 310.12,700.514 L 310.12,699.405 C 309.416,699.254 308.736,699.103 308.03,699.103"
             id="path2409"
             style="fill:#231f20;fill-opacity:1;fill-rule:nonzero;stroke:none" />
          <path
             d="M 323.01,705.271 L 313.393,705.271 C 313.419,703.811 313.896,702.454 314.701,701.496 C 315.407,700.663 316.389,700.161 317.749,700.161 C 318.857,700.161 319.814,700.565 320.493,701.269 C 320.947,701.747 321.299,702.302 321.449,703.056 L 322.757,703.056 C 322.582,701.973 322.054,701.091 321.349,700.413 C 320.444,699.508 319.184,698.953 317.749,698.953 C 315.936,698.953 314.652,699.708 313.745,700.738 C 312.712,701.946 312.134,703.61 312.134,705.523 C 312.134,707.108 312.385,708.67 313.367,710.004 C 314.425,711.439 315.886,712.194 317.647,712.194 C 321.046,712.194 323.036,709.273 323.036,706.103 C 323.036,705.799 323.01,705.576 323.01,705.271 M 317.647,711.01 C 315.054,711.01 313.419,708.922 313.419,706.431 L 321.751,706.431 C 321.702,708.822 320.215,711.01 317.647,711.01"
             id="path2411"
             style="fill:#231f20;fill-opacity:1;fill-rule:nonzero;stroke:none" />
          <path
             d="M 331.168,698.953 C 329.607,698.953 328.347,699.555 327.467,700.438 C 326.157,701.747 325.703,703.434 325.703,705.576 C 325.703,707.712 326.157,709.399 327.467,710.71 C 328.347,711.591 329.607,712.194 331.168,712.194 C 333.786,712.194 335.725,710.484 336.027,707.937 L 334.718,707.937 C 334.439,709.677 333.081,710.96 331.168,710.96 C 329.958,710.96 329.027,710.559 328.372,709.879 C 327.24,708.698 326.987,707.21 326.987,705.576 C 326.987,703.936 327.24,702.429 328.372,701.244 C 329.027,700.565 329.958,700.188 331.168,700.188 C 333.106,700.188 334.439,701.545 334.744,703.257 L 336.077,703.257 C 335.75,700.815 333.81,698.953 331.168,698.953"
             id="path2413"
             style="fill:#231f20;fill-opacity:1;fill-rule:nonzero;stroke:none" />
          <path
             d="M 348.185,699.28 L 348.185,707.512 C 348.185,709.702 347.229,711.01 344.937,711.01 C 341.841,711.01 340.757,708.294 340.757,705.576 L 340.757,699.28 L 339.499,699.28 L 339.499,717.457 L 340.757,717.457 L 340.757,709.551 C 341.461,711.165 343.25,712.194 345.012,712.194 C 347.906,712.194 349.444,710.408 349.444,707.588 L 349.444,699.28 L 348.185,699.28 z"
             id="path2415"
             style="fill:#231f20;fill-opacity:1;fill-rule:nonzero;stroke:none" />
          <path
             d="M 362.863,699.28 L 362.863,707.512 C 362.863,709.702 361.907,710.96 359.614,710.96 C 356.518,710.96 355.437,708.294 355.437,705.576 L 355.437,699.28 L 354.177,699.28 L 354.177,711.868 L 355.285,711.868 L 355.437,709.578 C 356.142,711.165 357.93,712.194 359.691,712.194 C 362.587,712.194 364.123,710.408 364.123,707.588 L 364.123,699.28 L 362.863,699.28 z"
             id="path2417"
             style="fill:#231f20;fill-opacity:1;fill-rule:nonzero;stroke:none" />
          <path
             d="M 368.755,717.128 L 370.516,717.128 L 370.516,715.367 L 368.755,715.367 L 368.755,717.128 z M 368.982,711.868 L 370.316,711.868 L 370.316,699.28 L 368.982,699.28 L 368.982,711.868 z"
             id="path2419"
             style="fill:#231f20;fill-opacity:1;fill-rule:nonzero;stroke:none" />
          <path
             d="M 383.534,700.462 C 382.628,699.456 381.117,698.953 379.456,698.953 C 377.744,698.953 376.283,699.48 375.326,700.565 C 374.622,701.369 374.318,702.073 374.269,703.107 L 375.552,703.107 C 375.627,702.349 375.956,701.696 376.485,701.167 C 377.213,700.462 378.246,700.161 379.456,700.161 C 380.766,700.161 381.797,700.462 382.427,701.091 C 382.878,701.545 383.105,701.973 383.105,702.703 C 383.105,703.836 382.3,704.793 380.79,704.994 L 378.347,705.322 C 377.316,705.447 376.207,705.776 375.502,706.58 C 375.049,707.108 374.797,707.764 374.797,708.571 C 374.797,709.578 375.226,710.408 375.88,711.01 C 376.787,711.846 378.021,712.194 379.33,712.194 C 380.839,712.194 382.274,711.718 383.131,710.71 C 383.709,710.03 384.063,709.198 384.089,708.395 L 382.829,708.395 C 382.78,708.797 382.603,709.428 382.2,709.904 C 381.62,710.584 380.638,711.01 379.33,711.01 C 378.347,711.01 377.618,710.837 377.063,710.435 C 376.435,709.98 376.083,709.375 376.083,708.698 C 376.083,707.639 376.611,706.833 378.523,706.58 L 380.915,706.252 C 383.281,705.927 384.39,704.315 384.39,702.78 C 384.39,701.846 384.089,701.091 383.534,700.462"
             id="path2421"
             style="fill:#231f20;fill-opacity:1;fill-rule:nonzero;stroke:none" />
          <path
             d="M 392.673,698.953 C 391.112,698.953 389.854,699.555 388.974,700.438 C 387.664,701.747 387.209,703.434 387.209,705.576 C 387.209,707.712 387.664,709.399 388.974,710.71 C 389.854,711.591 391.112,712.194 392.673,712.194 C 395.292,712.194 397.229,710.484 397.532,707.937 L 396.225,707.937 C 395.947,709.677 394.588,710.96 392.673,710.96 C 391.465,710.96 390.532,710.559 389.877,709.879 C 388.746,708.698 388.494,707.21 388.494,705.576 C 388.494,703.936 388.746,702.429 389.877,701.244 C 390.532,700.565 391.465,700.188 392.673,700.188 C 394.611,700.188 395.947,701.545 396.248,703.257 L 397.583,703.257 C 397.254,700.815 395.316,698.953 392.673,698.953"
             id="path2423"
             style="fill:#231f20;fill-opacity:1;fill-rule:nonzero;stroke:none" />
          <path
             d="M 409.691,699.28 L 409.691,707.512 C 409.691,709.702 408.734,711.01 406.442,711.01 C 403.345,711.01 402.265,708.294 402.265,705.576 L 402.265,699.28 L 401.003,699.28 L 401.003,717.457 L 402.265,717.457 L 402.265,709.551 C 402.968,711.165 404.755,712.194 406.517,712.194 C 409.415,712.194 410.95,710.408 410.95,707.588 L 410.95,699.28 L 409.691,699.28 z"
             id="path2425"
             style="fill:#231f20;fill-opacity:1;fill-rule:nonzero;stroke:none" />
          <path
             d="M 425.477,705.271 L 415.861,705.271 C 415.885,703.811 416.363,702.454 417.168,701.496 C 417.874,700.663 418.857,700.161 420.215,700.161 C 421.322,700.161 422.28,700.565 422.96,701.269 C 423.412,701.747 423.765,702.302 423.917,703.056 L 425.226,703.056 C 425.049,701.973 424.519,701.091 423.815,700.413 C 422.908,699.508 421.65,698.953 420.215,698.953 C 418.4,698.953 417.119,699.708 416.213,700.738 C 415.181,701.946 414.6,703.61 414.6,705.523 C 414.6,707.108 414.853,708.67 415.834,710.004 C 416.892,711.439 418.351,712.194 420.115,712.194 C 423.514,712.194 425.502,709.273 425.502,706.103 C 425.502,705.799 425.477,705.576 425.477,705.271 M 420.115,711.01 C 417.521,711.01 415.885,708.922 415.885,706.431 L 424.218,706.431 C 424.167,708.822 422.682,711.01 420.115,711.01"
             id="path2427"
             style="fill:#231f20;fill-opacity:1;fill-rule:nonzero;stroke:none" />
          <path
             d="M 443.252,699.306 L 443.1,701.597 C 442.395,699.984 440.608,698.978 438.845,698.978 C 435.95,698.978 434.415,700.765 434.415,703.585 L 434.415,711.894 L 435.673,711.894 L 435.673,703.66 C 435.673,701.47 436.629,700.211 438.922,700.211 C 442.016,700.211 443.1,702.879 443.1,705.598 L 443.1,711.894 L 444.36,711.894 L 444.36,699.306 L 443.252,699.306 z"
             id="path2429"
             style="fill:#231f20;fill-opacity:1;fill-rule:nonzero;stroke:none" />
          <path
             d="M 458.032,699.28 L 458.032,707.512 C 458.032,709.702 457.074,710.96 454.783,710.96 C 451.686,710.96 450.603,708.294 450.603,705.576 L 450.603,699.28 L 449.345,699.28 L 449.345,711.868 L 450.452,711.868 L 450.603,709.578 C 451.308,711.165 453.097,712.194 454.858,712.194 C 457.754,712.194 459.289,710.408 459.289,707.588 L 459.289,699.28 L 458.032,699.28 z"
             id="path2431"
             style="fill:#231f20;fill-opacity:1;fill-rule:nonzero;stroke:none" />
          <path
             d="M 463.923,717.128 L 465.685,717.128 L 465.685,715.367 L 463.923,715.367 L 463.923,717.128 z M 464.149,711.868 L 465.481,711.868 L 465.481,699.28 L 464.149,699.28 L 464.149,711.868 z"
             id="path2433"
             style="fill:#231f20;fill-opacity:1;fill-rule:nonzero;stroke:none" />
          <path
             d="M 474.699,699.28 L 473.413,699.28 L 468.43,711.868 L 469.864,711.868 L 474.095,701.067 L 478.146,711.868 L 479.483,711.868 L 474.699,699.28 z"
             id="path2435"
             style="fill:#231f20;fill-opacity:1;fill-rule:nonzero;stroke:none" />
          <path
             d="M 491.991,705.271 L 482.375,705.271 C 482.399,703.811 482.878,702.454 483.683,701.496 C 484.387,700.663 485.371,700.161 486.729,700.161 C 487.839,700.161 488.794,700.565 489.473,701.269 C 489.927,701.747 490.279,702.302 490.429,703.056 L 491.739,703.056 C 491.563,701.973 491.035,701.091 490.331,700.413 C 489.422,699.508 488.164,698.953 486.729,698.953 C 484.917,698.953 483.631,699.708 482.727,700.738 C 481.694,701.946 481.116,703.61 481.116,705.523 C 481.116,707.108 481.366,708.67 482.349,710.004 C 483.408,711.439 484.867,712.194 486.628,712.194 C 490.027,712.194 492.016,709.273 492.016,706.103 C 492.016,705.799 491.991,705.576 491.991,705.271 M 486.628,711.01 C 484.038,711.01 482.399,708.922 482.399,706.431 L 490.733,706.431 C 490.683,708.822 489.197,711.01 486.628,711.01"
             id="path2437"
             style="fill:#231f20;fill-opacity:1;fill-rule:nonzero;stroke:none" />
          <path
             d="M 501.03,710.785 C 497.881,710.785 497.028,707.966 497.028,705.322 L 497.028,699.28 L 495.768,699.28 L 495.768,711.868 L 496.875,711.868 L 497.028,709.326 C 497.58,711.063 499.266,711.994 501.03,711.994 C 501.432,711.994 501.86,711.994 502.264,711.918 L 502.264,710.659 C 501.86,710.761 501.432,710.785 501.03,710.785"
             id="path2439"
             style="fill:#231f20;fill-opacity:1;fill-rule:nonzero;stroke:none" />
          <path
             d="M 513.239,700.462 C 512.335,699.456 510.824,698.953 509.16,698.953 C 507.451,698.953 505.989,699.48 505.031,700.565 C 504.325,701.369 504.026,702.073 503.977,703.107 L 505.258,703.107 C 505.334,702.349 505.662,701.696 506.191,701.167 C 506.919,700.462 507.952,700.161 509.16,700.161 C 510.472,700.161 511.503,700.462 512.13,701.091 C 512.585,701.545 512.813,701.973 512.813,702.703 C 512.813,703.836 512.007,704.793 510.494,704.994 L 508.052,705.322 C 507.02,705.447 505.912,705.776 505.209,706.58 C 504.757,707.108 504.504,707.764 504.504,708.571 C 504.504,709.578 504.931,710.408 505.585,711.01 C 506.492,711.846 507.725,712.194 509.033,712.194 C 510.546,712.194 511.98,711.718 512.838,710.71 C 513.418,710.03 513.769,709.198 513.793,708.395 L 512.534,708.395 C 512.484,708.797 512.309,709.428 511.906,709.904 C 511.324,710.584 510.346,711.01 509.033,711.01 C 508.052,711.01 507.323,710.837 506.77,710.435 C 506.14,709.98 505.787,709.375 505.787,708.698 C 505.787,707.639 506.317,706.833 508.227,706.58 L 510.621,706.252 C 512.988,705.927 514.096,704.315 514.096,702.78 C 514.096,701.846 513.793,701.091 513.239,700.462"
             id="path2441"
             style="fill:#231f20;fill-opacity:1;fill-rule:nonzero;stroke:none" />
          <path
             d="M 517.899,717.128 L 519.66,717.128 L 519.66,715.367 L 517.899,715.367 L 517.899,717.128 z M 518.125,711.868 L 519.46,711.868 L 519.46,699.28 L 518.125,699.28 L 518.125,711.868 z"
             id="path2443"
             style="fill:#231f20;fill-opacity:1;fill-rule:nonzero;stroke:none" />
          <path
             d="M 528.422,699.103 C 526.081,699.103 525.173,700.59 525.173,702.78 L 525.173,710.71 L 522.657,710.71 L 522.657,711.868 L 525.173,711.868 L 525.173,715.344 L 526.431,715.645 L 526.431,711.868 L 530.334,711.868 L 530.334,710.71 L 526.431,710.71 L 526.431,702.829 C 526.431,701.344 526.834,700.284 528.521,700.284 C 529.202,700.284 529.831,700.389 530.513,700.514 L 530.513,699.405 C 529.807,699.254 529.127,699.103 528.422,699.103"
             id="path2445"
             style="fill:#231f20;fill-opacity:1;fill-rule:nonzero;stroke:none" />
          <path
             d="M 543.68,699.202 C 542.118,699.202 541.689,700.336 541.689,701.671 C 541.009,699.883 539.096,698.953 537.157,698.953 C 534.717,698.953 532.825,700.413 532.825,702.829 C 532.825,705.069 534.563,706.405 537.059,706.58 L 541.689,706.909 L 541.689,708.142 C 541.689,710.233 540.278,711.01 538.366,711.01 C 536.378,711.01 534.867,710.106 534.74,708.243 L 533.482,708.243 C 533.66,710.785 535.647,712.194 538.366,712.194 C 540.078,712.194 541.941,711.616 542.622,709.879 C 542.923,709.099 542.948,708.294 542.948,707.461 L 542.948,701.721 C 542.948,700.865 543.075,700.363 543.931,700.363 C 544.082,700.363 544.157,700.363 544.283,700.389 L 544.283,699.28 C 543.98,699.23 543.98,699.202 543.68,699.202 M 541.689,705.749 L 537.183,705.471 C 535.319,705.349 534.112,704.367 534.112,702.829 C 534.112,701.017 535.471,700.11 537.257,700.11 C 540.43,700.11 541.689,702.678 541.689,705.096 L 541.689,705.749 z M 535.347,716.55 L 536.856,716.55 L 536.856,714.965 L 535.347,714.965 L 535.347,716.55 z M 539.977,716.55 L 541.512,716.55 L 541.512,714.965 L 539.977,714.965 L 539.977,716.55 z"
             id="path2447"
             style="fill:#231f20;fill-opacity:1;fill-rule:nonzero;stroke:none" />
          <path
             d="M 551.732,699.103 C 549.391,699.103 548.483,700.59 548.483,702.78 L 548.483,710.71 L 545.966,710.71 L 545.966,711.868 L 548.483,711.868 L 548.483,715.344 L 549.742,715.645 L 549.742,711.868 L 553.644,711.868 L 553.644,710.71 L 549.742,710.71 L 549.742,702.829 C 549.742,701.344 550.145,700.284 551.834,700.284 C 552.511,700.284 553.142,700.389 553.822,700.514 L 553.822,699.405 C 553.117,699.254 552.436,699.103 551.732,699.103"
             id="path2449"
             style="fill:#231f20;fill-opacity:1;fill-rule:nonzero;stroke:none" />
          <path
             d="M 312.763,673.03 L 312.614,675.245 C 311.932,673.684 310.12,672.703 308.433,672.703 C 307,672.703 305.916,673.154 305.085,673.886 C 303.675,675.118 303.021,677.134 303.021,679.297 C 303.021,681.362 303.651,683.377 304.984,684.636 C 305.815,685.439 306.949,685.946 308.407,685.946 C 310.197,685.946 311.932,684.938 312.614,683.501 L 312.614,691.206 L 313.871,691.206 L 313.871,673.03 L 312.763,673.03 z M 311.052,683.729 C 310.423,684.333 309.567,684.711 308.407,684.711 C 307.224,684.711 306.369,684.283 305.714,683.603 C 304.731,682.547 304.304,680.934 304.304,679.324 C 304.304,677.534 304.807,675.849 305.966,674.816 C 306.596,674.262 307.4,673.935 308.46,673.935 C 309.567,673.935 310.397,674.339 311.026,674.944 C 312.16,676.047 312.639,677.585 312.639,679.324 C 312.639,681.187 312.21,682.646 311.052,683.729"
             id="path2451"
             style="fill:#231f20;fill-opacity:1;fill-rule:nonzero;stroke:none" />
          <path
             d="M 326.912,674.212 C 326.031,673.332 324.799,672.703 323.238,672.703 C 321.676,672.703 320.444,673.332 319.559,674.212 C 318.251,675.521 317.775,677.182 317.775,679.324 C 317.775,681.463 318.251,683.127 319.559,684.435 C 320.444,685.317 321.676,685.946 323.238,685.946 C 324.799,685.946 326.031,685.317 326.912,684.435 C 328.222,683.127 328.7,681.463 328.7,679.324 C 328.7,677.182 328.222,675.521 326.912,674.212 M 326.007,683.603 C 325.353,684.283 324.445,684.711 323.238,684.711 C 322.031,684.711 321.122,684.283 320.468,683.603 C 319.335,682.419 319.058,680.959 319.058,679.324 C 319.058,677.688 319.335,676.226 320.468,675.043 C 321.122,674.362 322.031,673.935 323.238,673.935 C 324.445,673.935 325.353,674.362 326.007,675.043 C 327.141,676.226 327.416,677.688 327.416,679.324 C 327.416,680.959 327.141,682.419 326.007,683.603"
             id="path2453"
             style="fill:#231f20;fill-opacity:1;fill-rule:nonzero;stroke:none" />
          <path
             d="M 337.864,684.536 C 334.716,684.536 333.861,681.714 333.861,679.07 L 333.861,673.03 L 332.602,673.03 L 332.602,685.619 L 333.708,685.619 L 333.861,683.074 C 334.416,684.813 336.101,685.744 337.864,685.744 C 338.267,685.744 338.695,685.744 339.098,685.667 L 339.098,684.408 C 338.695,684.509 338.267,684.536 337.864,684.536"
             id="path2455"
             style="fill:#231f20;fill-opacity:1;fill-rule:nonzero;stroke:none" />
          <path
             d="M 346.316,672.852 C 343.976,672.852 343.069,674.339 343.069,676.528 L 343.069,684.461 L 340.552,684.461 L 340.552,685.619 L 343.069,685.619 L 343.069,689.092 L 344.329,689.396 L 344.329,685.619 L 348.231,685.619 L 348.231,684.461 L 344.329,684.461 L 344.329,676.579 C 344.329,675.095 344.729,674.037 346.419,674.037 C 347.098,674.037 347.728,674.136 348.406,674.262 L 348.406,673.154 C 347.702,673.004 347.021,672.852 346.316,672.852"
             id="path2457"
             style="fill:#231f20;fill-opacity:1;fill-rule:nonzero;stroke:none" />
          <path
             d="M 367.794,673.03 L 367.794,681.262 C 367.794,683.453 366.987,684.76 364.796,684.76 C 363.84,684.76 363.135,684.435 362.556,683.904 C 361.574,682.973 361.071,681.666 361.071,680.152 L 361.071,673.03 L 359.787,673.03 L 359.787,681.262 C 359.787,683.453 358.956,684.76 356.766,684.76 C 355.809,684.76 355.078,684.435 354.524,683.904 C 353.391,682.853 353.014,681.11 353.014,679.324 L 353.014,673.03 L 351.756,673.03 L 351.756,685.619 L 352.864,685.619 L 353.014,683.453 C 353.669,684.887 355.029,685.946 356.839,685.946 C 359.033,685.946 360.315,684.864 360.819,683.226 C 361.474,684.786 362.808,685.946 364.873,685.946 C 367.818,685.946 369.053,684.032 369.053,681.337 L 369.053,673.03 L 367.794,673.03 z"
             id="path2459"
             style="fill:#231f20;fill-opacity:1;fill-rule:nonzero;stroke:none" />
          <path
             d="M 382.372,673.054 L 382.218,675.345 C 381.513,673.734 379.728,672.725 377.964,672.725 C 375.068,672.725 373.533,674.515 373.533,677.336 L 373.533,685.642 L 374.792,685.642 L 374.792,677.41 C 374.792,675.22 375.75,673.961 378.04,673.961 C 381.137,673.961 382.218,676.63 382.218,679.349 L 382.218,685.642 L 383.478,685.642 L 383.478,673.054 L 382.372,673.054 z"
             id="path2461"
             style="fill:#231f20;fill-opacity:1;fill-rule:nonzero;stroke:none" />
          <path
             d="M 397.149,673.03 L 397.149,681.262 C 397.149,683.453 396.192,684.711 393.903,684.711 C 390.805,684.711 389.722,682.042 389.722,679.324 L 389.722,673.03 L 388.464,673.03 L 388.464,685.619 L 389.571,685.619 L 389.722,683.327 C 390.428,684.913 392.215,685.946 393.978,685.946 C 396.875,685.946 398.41,684.156 398.41,681.337 L 398.41,673.03 L 397.149,673.03 z"
             id="path2463"
             style="fill:#231f20;fill-opacity:1;fill-rule:nonzero;stroke:none" />
          <path
             d="M 411.753,673.03 L 411.601,675.245 C 410.923,673.684 409.109,672.703 407.42,672.703 C 405.986,672.703 404.904,673.154 404.071,673.886 C 402.662,675.118 402.008,677.134 402.008,679.297 C 402.008,681.362 402.639,683.377 403.974,684.636 C 404.805,685.439 405.935,685.946 407.396,685.946 C 409.185,685.946 410.923,684.938 411.601,683.501 L 411.601,691.206 L 412.861,691.206 L 412.861,673.03 L 411.753,673.03 z M 410.039,683.729 C 409.409,684.333 408.554,684.711 407.396,684.711 C 406.213,684.711 405.357,684.283 404.702,683.603 C 403.721,682.547 403.292,680.934 403.292,679.324 C 403.292,677.534 403.797,675.849 404.952,674.816 C 405.583,674.262 406.389,673.935 407.447,673.935 C 408.554,673.935 409.385,674.339 410.014,674.944 C 411.147,676.047 411.627,677.585 411.627,679.324 C 411.627,681.187 411.198,682.646 410.039,683.729"
             id="path2465"
             style="fill:#231f20;fill-opacity:1;fill-rule:nonzero;stroke:none" />
        </g>
      </g>
    </g>
  </g>
</svg>
