<?xml version="1.0" encoding="UTF-8" standalone="no"?><svg xmlns="http://www.w3.org/2000/svg" xmlns:xlink="http://www.w3.org/1999/xlink" contentStyleType="text/css" height="681.25px" preserveAspectRatio="none" style="width:1110px;height:681px;" version="1.1" viewBox="0 0 1110 681" width="1110.4167px" zoomAndPan="magnify"><defs><linearGradient id="g8utz4b4e4okl0" x1="50%" x2="50%" y1="0%" y2="100%"><stop offset="0%" stop-color="#B8B8B8"/><stop offset="100%" stop-color="#999999"/></linearGradient><linearGradient id="g8utz4b4e4okl1" x1="50%" x2="50%" y1="0%" y2="100%"><stop offset="0%" stop-color="#7C9AB9"/><stop offset="100%" stop-color="#304D6D"/></linearGradient><linearGradient id="g8utz4b4e4okl2" x1="50%" x2="50%" y1="0%" y2="100%"><stop offset="0%" stop-color="#B8B8B8"/><stop offset="100%" stop-color="#6B6B6B"/></linearGradient></defs><g><rect fill="url(#g8utz4b4e4okl0)" height="47.168" id="_title" rx="4.1667" ry="4.1667" style="stroke:#6B6B6B;stroke-width:1.0416666666666667;" width="430.2083" x="338.5417" y="20.8333"/><text fill="#304D6D" font-family="Verdana" font-size="20.8333" font-weight="bold" lengthAdjust="spacing" textLength="407.2917" x="350" y="51.6296">Representation of Arduino-Skript</text><ellipse cx="538.5417" cy="89.8763" fill="#3399F3" rx="10.4167" ry="10.4167" style="stroke:#304D6D;stroke-width:1.0416666666666667;"/><rect fill="#3CB521" height="6.25" rx="2.6042" ry="2.6042" style="stroke:#3CB521;stroke-width:1.0416666666666667;" width="372.9167" x="352.0833" y="121.1263"/><rect fill="url(#g8utz4b4e4okl1)" height="37.4674" rx="4.1667" ry="4.1667" style="stroke:#304D6D;stroke-width:1.0416666666666667;" width="164.5833" x="366.6667" y="148.2096"/><text fill="#FFFFFF" font-family="Verdana" font-size="12.5" lengthAdjust="spacing" textLength="141.6667" x="378.125" y="171.2708">initialise StepperMotor</text><rect fill="url(#g8utz4b4e4okl1)" height="37.4674" rx="4.1667" ry="4.1667" style="stroke:#304D6D;stroke-width:1.0416666666666667;" width="150" x="560.4167" y="148.2096"/><text fill="#FFFFFF" font-family="Verdana" font-size="12.5" lengthAdjust="spacing" textLength="127.0833" x="571.875" y="171.2708">initialise Lightsensor</text><rect fill="#3CB521" height="6.25" rx="2.6042" ry="2.6042" style="stroke:#3CB521;stroke-width:1.0416666666666667;" width="372.9167" x="352.0833" y="206.5104"/><rect fill="url(#g8utz4b4e4okl1)" height="37.4674" rx="4.1667" ry="4.1667" style="stroke:#304D6D;stroke-width:1.0416666666666667;" width="189.5833" x="443.75" y="279.4271"/><text fill="#FFFFFF" font-family="Verdana" font-size="12.5" lengthAdjust="spacing" textLength="166.6667" x="455.2083" y="302.4882">read incomming command</text><polygon fill="url(#g8utz4b4e4okl2)" points="502.6042,337.7279,574.4792,337.7279,586.9792,350.2279,574.4792,362.7279,502.6042,362.7279,490.1042,350.2279,502.6042,337.7279" style="stroke:#6B6B6B;stroke-width:1.0416666666666667;"/><text fill="#FFFFFF" font-family="Verdana" font-size="12.5" lengthAdjust="spacing" textLength="61.4583" x="507.8125" y="354.5553">command</text><rect fill="url(#g8utz4b4e4okl1)" height="37.4674" rx="4.1667" ry="4.1667" style="stroke:#304D6D;stroke-width:1.0416666666666667;" width="119.7917" x="11.4583" y="428.2878"/><text fill="#FFFFFF" font-family="Verdana" font-size="12.5" lengthAdjust="spacing" textLength="96.875" x="22.9167" y="451.3489">set Start = true</text><rect fill="url(#g8utz4b4e4okl1)" height="37.4674" rx="4.1667" ry="4.1667" style="stroke:#304D6D;stroke-width:1.0416666666666667;" width="125" x="141.6667" y="428.2878"/><text fill="#FFFFFF" font-family="Verdana" font-size="12.5" lengthAdjust="spacing" textLength="102.0833" x="153.125" y="451.3489">set Start = false</text><rect fill="url(#g8utz4b4e4okl1)" height="37.4674" rx="4.1667" ry="4.1667" style="stroke:#304D6D;stroke-width:1.0416666666666667;" width="112.5" x="147.9167" y="488.0859"/><text fill="#FFFFFF" font-family="Verdana" font-size="12.5" lengthAdjust="spacing" textLength="89.5833" x="159.375" y="511.1471">set phase = 0</text><rect fill="url(#g8utz4b4e4okl1)" height="37.4674" rx="4.1667" ry="4.1667" style="stroke:#304D6D;stroke-width:1.0416666666666667;" width="122.9167" x="277.0833" y="428.2878"/><text fill="#FFFFFF" font-family="Verdana" font-size="12.5" lengthAdjust="spacing" textLength="100" x="288.5417" y="451.3489">run Calibration()</text><rect fill="url(#g8utz4b4e4okl1)" height="37.4674" rx="4.1667" ry="4.1667" style="stroke:#304D6D;stroke-width:1.0416666666666667;" width="92.7083" x="430.2083" y="428.2878"/><text fill="#FFFFFF" font-family="Verdana" font-size="12.5" lengthAdjust="spacing" textLength="69.7917" x="441.6667" y="451.3489">run Reset()</text><rect fill="url(#g8utz4b4e4okl1)" height="37.4674" rx="4.1667" ry="4.1667" style="stroke:#304D6D;stroke-width:1.0416666666666667;" width="172.9167" x="543.75" y="428.2878"/><text fill="#FFFFFF" font-family="Verdana" font-size="12.5" lengthAdjust="spacing" textLength="150" x="555.2083" y="451.3489">run Move(int steps &gt; 0)</text><rect fill="url(#g8utz4b4e4okl1)" height="37.4674" rx="4.1667" ry="4.1667" style="stroke:#304D6D;stroke-width:1.0416666666666667;" width="172.9167" x="735.4167" y="428.2878"/><text fill="#FFFFFF" font-family="Verdana" font-size="12.5" lengthAdjust="spacing" textLength="150" x="746.875" y="451.3489">run Move(int steps &lt; 0)</text><rect fill="url(#g8utz4b4e4okl1)" height="37.4674" rx="4.1667" ry="4.1667" style="stroke:#304D6D;stroke-width:1.0416666666666667;" width="145.8333" x="918.75" y="428.2878"/><text fill="#FFFFFF" font-family="Verdana" font-size="12.5" lengthAdjust="spacing" textLength="122.9167" x="930.2083" y="451.3489">set Nullposition = 0</text><polygon fill="url(#g8utz4b4e4okl2)" points="538.5417,535.9701,538.5417,535.9701,551.0417,548.4701,538.5417,560.9701,538.5417,560.9701,526.0417,548.4701,538.5417,535.9701" style="stroke:#6B6B6B;stroke-width:1.0416666666666667;"/><rect fill="url(#g8utz4b4e4okl1)" height="37.4674" rx="4.1667" ry="4.1667" style="stroke:#304D6D;stroke-width:1.0416666666666667;" width="230.2083" x="423.4375" y="581.8034"/><text fill="#FFFFFF" font-family="Verdana" font-size="12.5" lengthAdjust="spacing" textLength="207.2917" x="434.8958" y="604.8645">Finished executing the command</text><polygon fill="url(#g8utz4b4e4okl2)" points="538.5417,233.5938,551.0417,246.0938,538.5417,258.5938,526.0417,246.0938,538.5417,233.5938" style="stroke:#6B6B6B;stroke-width:1.0416666666666667;"/><line style="stroke:#446E9B;stroke-width:3.125;" x1="448.9583" x2="448.9583" y1="127.3763" y2="148.2096"/><polygon fill="#446E9B" points="444.7917,137.793,448.9583,148.2096,453.125,137.793,448.9583,141.9596" style="stroke:#446E9B;stroke-width:1.0416666666666667;"/><line style="stroke:#446E9B;stroke-width:3.125;" x1="635.4167" x2="635.4167" y1="127.3763" y2="148.2096"/><polygon fill="#446E9B" points="631.25,137.793,635.4167,148.2096,639.5833,137.793,635.4167,141.9596" style="stroke:#446E9B;stroke-width:1.0416666666666667;"/><line style="stroke:#446E9B;stroke-width:3.125;" x1="448.9583" x2="448.9583" y1="185.6771" y2="206.5104"/><polygon fill="#446E9B" points="444.7917,196.0938,448.9583,206.5104,453.125,196.0938,448.9583,200.2604" style="stroke:#446E9B;stroke-width:1.0416666666666667;"/><line style="stroke:#446E9B;stroke-width:3.125;" x1="635.4167" x2="635.4167" y1="185.6771" y2="206.5104"/><polygon fill="#446E9B" points="631.25,196.0938,635.4167,206.5104,639.5833,196.0938,635.4167,200.2604" style="stroke:#446E9B;stroke-width:1.0416666666666667;"/><line style="stroke:#446E9B;stroke-width:3.125;" x1="538.5417" x2="538.5417" y1="100.293" y2="121.1263"/><polygon fill="#446E9B" points="534.375,110.7096,538.5417,121.1263,542.7083,110.7096,538.5417,114.8763" style="stroke:#446E9B;stroke-width:1.0416666666666667;"/><line style="stroke:#446E9B;stroke-width:3.125;" x1="204.1667" x2="204.1667" y1="465.7552" y2="488.0859"/><polygon fill="#446E9B" points="200,477.6693,204.1667,488.0859,208.3333,477.6693,204.1667,481.8359" style="stroke:#446E9B;stroke-width:1.0416666666666667;"/><line style="stroke:#446E9B;stroke-width:3.125;" x1="490.1042" x2="71.3542" y1="350.2279" y2="350.2279"/><line style="stroke:#446E9B;stroke-width:3.125;" x1="71.3542" x2="71.3542" y1="350.2279" y2="428.2878"/><polygon fill="#446E9B" points="67.1875,417.8711,71.3542,428.2878,75.5208,417.8711,71.3542,422.0378" style="stroke:#446E9B;stroke-width:1.0416666666666667;"/><text fill="#FFFFFF" font-family="Verdana" font-size="12.5" lengthAdjust="spacing" textLength="29.1667" x="76.5625" y="391.3411">Start</text><text fill="#FFFFFF" font-family="Verdana" font-size="12.5" lengthAdjust="spacing" textLength="4.1667" x="76.5625" y="405.8919"> </text><line style="stroke:#446E9B;stroke-width:3.125;" x1="586.9792" x2="991.6667" y1="350.2279" y2="350.2279"/><line style="stroke:#446E9B;stroke-width:3.125;" x1="991.6667" x2="991.6667" y1="350.2279" y2="428.2878"/><polygon fill="#446E9B" points="987.5,417.8711,991.6667,428.2878,995.8333,417.8711,991.6667,422.0378" style="stroke:#446E9B;stroke-width:1.0416666666666667;"/><text fill="#FFFFFF" font-family="Verdana" font-size="12.5" lengthAdjust="spacing" textLength="71.875" x="996.875" y="391.3411">Nullposition</text><text fill="#FFFFFF" font-family="Verdana" font-size="12.5" lengthAdjust="spacing" textLength="4.1667" x="996.875" y="405.8919"> </text><line style="stroke:#446E9B;stroke-width:3.125;" x1="204.1667" x2="204.1667" y1="350.2279" y2="428.2878"/><polygon fill="#446E9B" points="200,417.8711,204.1667,428.2878,208.3333,417.8711,204.1667,422.0378" style="stroke:#446E9B;stroke-width:1.0416666666666667;"/><text fill="#FFFFFF" font-family="Verdana" font-size="12.5" lengthAdjust="spacing" textLength="37.5" x="209.375" y="386.1328">Stopp</text><text fill="#FFFFFF" font-family="Verdana" font-size="12.5" lengthAdjust="spacing" textLength="4.1667" x="209.375" y="400.6836"> </text><line style="stroke:#446E9B;stroke-width:3.125;" x1="338.5417" x2="338.5417" y1="350.2279" y2="428.2878"/><polygon fill="#446E9B" points="334.375,417.8711,338.5417,428.2878,342.7083,417.8711,338.5417,422.0378" style="stroke:#446E9B;stroke-width:1.0416666666666667;"/><text fill="#FFFFFF" font-family="Verdana" font-size="12.5" lengthAdjust="spacing" textLength="60.4167" x="343.75" y="386.1328">Kalibirere</text><text fill="#FFFFFF" font-family="Verdana" font-size="12.5" lengthAdjust="spacing" textLength="4.1667" x="343.75" y="400.6836"> </text><line style="stroke:#446E9B;stroke-width:3.125;" x1="476.5625" x2="476.5625" y1="350.2279" y2="428.2878"/><polygon fill="#446E9B" points="472.3958,417.8711,476.5625,428.2878,480.7292,417.8711,476.5625,422.0378" style="stroke:#446E9B;stroke-width:1.0416666666666667;"/><text fill="#FFFFFF" font-family="Verdana" font-size="12.5" lengthAdjust="spacing" textLength="35.4167" x="481.7708" y="386.1328">Reset</text><text fill="#FFFFFF" font-family="Verdana" font-size="12.5" lengthAdjust="spacing" textLength="4.1667" x="481.7708" y="400.6836"> </text><line style="stroke:#446E9B;stroke-width:3.125;" x1="630.2083" x2="630.2083" y1="350.2279" y2="428.2878"/><polygon fill="#446E9B" points="626.0417,417.8711,630.2083,428.2878,634.375,417.8711,630.2083,422.0378" style="stroke:#446E9B;stroke-width:1.0416666666666667;"/><text fill="#FFFFFF" font-family="Verdana" font-size="12.5" lengthAdjust="spacing" textLength="52.0833" x="635.4167" y="386.1328">Forward</text><text fill="#FFFFFF" font-family="Verdana" font-size="12.5" lengthAdjust="spacing" textLength="4.1667" x="635.4167" y="400.6836"> </text><line style="stroke:#446E9B;stroke-width:3.125;" x1="821.875" x2="821.875" y1="350.2279" y2="428.2878"/><polygon fill="#446E9B" points="817.7083,417.8711,821.875,428.2878,826.0417,417.8711,821.875,422.0378" style="stroke:#446E9B;stroke-width:1.0416666666666667;"/><text fill="#FFFFFF" font-family="Verdana" font-size="12.5" lengthAdjust="spacing" textLength="61.4583" x="827.0833" y="386.1328">Backward</text><text fill="#FFFFFF" font-family="Verdana" font-size="12.5" lengthAdjust="spacing" textLength="4.1667" x="827.0833" y="400.6836"> </text><line style="stroke:#446E9B;stroke-width:3.125;" x1="71.3542" x2="71.3542" y1="465.7552" y2="548.4701"/><line style="stroke:#446E9B;stroke-width:3.125;" x1="71.3542" x2="526.0417" y1="548.4701" y2="548.4701"/><polygon fill="#446E9B" points="515.625,544.3034,526.0417,548.4701,515.625,552.6367,519.7917,548.4701" style="stroke:#446E9B;stroke-width:1.0416666666666667;"/><line style="stroke:#446E9B;stroke-width:3.125;" x1="991.6667" x2="991.6667" y1="465.7552" y2="548.4701"/><line style="stroke:#446E9B;stroke-width:3.125;" x1="991.6667" x2="551.0417" y1="548.4701" y2="548.4701"/><polygon fill="#446E9B" points="561.4583,544.3034,551.0417,548.4701,561.4583,552.6367,557.2917,548.4701" style="stroke:#446E9B;stroke-width:1.0416666666666667;"/><line style="stroke:#446E9B;stroke-width:3.125;" x1="204.1667" x2="204.1667" y1="525.5534" y2="548.4701"/><polygon fill="#446E9B" points="200,538.0534,204.1667,548.4701,208.3333,538.0534,204.1667,542.2201" style="stroke:#446E9B;stroke-width:1.0416666666666667;"/><line style="stroke:#446E9B;stroke-width:3.125;" x1="338.5417" x2="338.5417" y1="465.7552" y2="548.4701"/><polygon fill="#446E9B" points="334.375,538.0534,338.5417,548.4701,342.7083,538.0534,338.5417,542.2201" style="stroke:#446E9B;stroke-width:1.0416666666666667;"/><line style="stroke:#446E9B;stroke-width:3.125;" x1="476.5625" x2="476.5625" y1="465.7552" y2="548.4701"/><polygon fill="#446E9B" points="472.3958,538.0534,476.5625,548.4701,480.7292,538.0534,476.5625,542.2201" style="stroke:#446E9B;stroke-width:1.0416666666666667;"/><line style="stroke:#446E9B;stroke-width:3.125;" x1="630.2083" x2="630.2083" y1="465.7552" y2="548.4701"/><polygon fill="#446E9B" points="626.0417,538.0534,630.2083,548.4701,634.375,538.0534,630.2083,542.2201" style="stroke:#446E9B;stroke-width:1.0416666666666667;"/><line style="stroke:#446E9B;stroke-width:3.125;" x1="821.875" x2="821.875" y1="465.7552" y2="548.4701"/><polygon fill="#446E9B" points="817.7083,538.0534,821.875,548.4701,826.0417,538.0534,821.875,542.2201" style="stroke:#446E9B;stroke-width:1.0416666666666667;"/><line style="stroke:#446E9B;stroke-width:3.125;" x1="538.5417" x2="538.5417" y1="316.8945" y2="337.7279"/><polygon fill="#446E9B" points="534.375,327.3112,538.5417,337.7279,542.7083,327.3112,538.5417,331.4779" style="stroke:#446E9B;stroke-width:1.0416666666666667;"/><line style="stroke:#446E9B;stroke-width:3.125;" x1="538.5417" x2="538.5417" y1="560.9701" y2="581.8034"/><polygon fill="#446E9B" points="534.375,571.3867,538.5417,581.8034,542.7083,571.3867,538.5417,575.5534" style="stroke:#446E9B;stroke-width:1.0416666666666667;"/><line style="stroke:#446E9B;stroke-width:3.125;" x1="538.5417" x2="538.5417" y1="258.5938" y2="279.4271"/><polygon fill="#446E9B" points="534.375,269.0104,538.5417,279.4271,542.7083,269.0104,538.5417,273.1771" style="stroke:#446E9B;stroke-width:1.0416666666666667;"/><line style="stroke:#446E9B;stroke-width:3.125;" x1="538.5417" x2="1083.3333" y1="669.2708" y2="669.2708"/><polygon fill="#446E9B" points="1079.1667,486.5885,1083.3333,476.1719,1087.5,486.5885,1083.3333,482.4219" style="stroke:#446E9B;stroke-width:3.125;"/><line style="stroke:#446E9B;stroke-width:3.125;" x1="1083.3333" x2="1083.3333" y1="246.0938" y2="669.2708"/><line style="stroke:#446E9B;stroke-width:3.125;" x1="1083.3333" x2="551.0417" y1="246.0938" y2="246.0938"/><polygon fill="#446E9B" points="561.4583,241.9271,551.0417,246.0938,561.4583,250.2604,557.2917,246.0938" style="stroke:#446E9B;stroke-width:1.0416666666666667;"/><line style="stroke:#446E9B;stroke-width:3.125;" x1="538.5417" x2="538.5417" y1="619.2708" y2="669.2708"/><line style="stroke:#446E9B;stroke-width:3.125;" x1="538.5417" x2="538.5417" y1="212.7604" y2="233.5938"/><polygon fill="#446E9B" points="534.375,223.1771,538.5417,233.5938,542.7083,223.1771,538.5417,227.3438" style="stroke:#446E9B;stroke-width:1.0416666666666667;"/><!--SRC=[XP91JyCm38Nl_HNcrXsGTgOC2P1sWN5Ohroyr5sjjadak8oVJnB6rY8aJf5UlkVOVhdHZaQ2uD7GW8T2MGU2FNcXG5PHsLbmBJnACx5rjtKlxBK8Yg95wwGl0ExOiZ8E70Xg9Uz9TawTL1a0F2BRNzWh7pkD3uH4aMqWbnBoX9fG8Mo0hN7ZoFO8wKJRLF4gd5XD1-LPMaN9OAnOrgcbTvk4M22GGbPW0oeJLJFEUVydr-8GCdZMVPSC6rXVpI-n_GCB2Lqgo6JXEScIbrMkhlG-xb0NO5RcoDR92QLPG3ltGILRXH2N6U01rZF34vh-FyVzml4s3ODtWLDtYxdd5pzZnYo-DvnIsCR4GaSDq2UPILCIyRjSqlW2]--></g></svg>